<?xml version="1.0" encoding="utf-8"?>
<!-- Uploaded to: SVG Repo, www.svgrepo.com, Generator: SVG Repo Mixer Tools -->
<svg fill="#000000" width="800px" height="800px" viewBox="0 0 32 32" version="1.1" xmlns="http://www.w3.org/2000/svg">
<title>soundcloud</title>
<path d="M27.304 15.093c-0.515 0.001-1.004 0.107-1.448 0.299l0.024-0.009c-0.31-3.334-3.093-5.923-6.482-5.923-0.002 0-0.005 0-0.007 0h0c-0.851 0.005-1.662 0.169-2.407 0.465l0.045-0.016c-0.281 0.113-0.338 0.225-0.356 0.449v11.716c0.015 0.226 0.189 0.407 0.411 0.431l0.002 0h10.237c0.011 0 0.023 0 0.036 0 2.010 0 3.639-1.629 3.639-3.639 0-0.006 0-0.011-0-0.017v0.001c0-0.003 0-0.006 0-0.009 0-2.031-1.644-3.678-3.674-3.683h-0zM16.112 10.451c-0.044-0.047-0.107-0.077-0.177-0.077-0.004 0-0.008 0-0.012 0l0.001-0c-0.005-0-0.011-0-0.016-0-0.092 0-0.177 0.029-0.246 0.078l0.001-0.001c-0.089 0.071-0.146 0.179-0.149 0.3v0.037l-0.171 8.266 0.095 1.52 0.076 1.482c0.010 0.219 0.19 0.393 0.41 0.393 0 0 0 0 0 0v0c0.227-0.001 0.411-0.185 0.413-0.411v-0l0.188-3.019-0.188-8.301c-0.005-0.148-0.086-0.275-0.204-0.345l-0.002-0.001zM14.854 11.135c-0.059-0.035-0.13-0.055-0.206-0.055s-0.147 0.020-0.208 0.056l0.002-0.001c-0.111 0.065-0.184 0.183-0.186 0.319v0.077l-0.13 7.564 0.144 3.063v0.010c0.008 0.086 0.042 0.164 0.093 0.226l-0.001-0.001c0.073 0.079 0.177 0.128 0.292 0.13h0c0.102-0.006 0.193-0.048 0.262-0.113l-0 0c0.070-0.071 0.114-0.169 0.114-0.277 0-0.002 0-0.003-0-0.005v0l0.019-0.3 0.146-2.755-0.169-7.611c-0.002-0.126-0.068-0.235-0.167-0.298l-0.001-0.001zM13.352 12.249c-0.196 0-0.355 0.16-0.355 0.356 0 0 0 0 0 0v-0l-0.129 6.432 0.169 3.094c0.001 0.192 0.156 0.347 0.348 0.347 0.003 0 0.005-0 0.008-0h-0c0.194-0.006 0.35-0.162 0.355-0.356v-0.001l0.151-3.055-0.169-6.393c-0.006-0.195-0.162-0.351-0.356-0.356h-0.001zM12.133 12.063c-0.174 0.005-0.314 0.144-0.319 0.317v0.001l-0.188 6.656 0.188 3.093c0 0.001 0 0.002 0 0.003 0 0.175 0.142 0.316 0.316 0.316 0.001 0 0.002 0 0.003 0h-0c0.178-0.008 0.319-0.154 0.319-0.332 0-0.002 0-0.004-0-0.005v0l0.188-3.094-0.206-6.637c-0-0.187-0.152-0.338-0.338-0.338-0 0-0.001 0-0.001 0h0zM11.197 12.231c0-0.001 0-0.002 0-0.004 0-0.164-0.133-0.296-0.296-0.296-0.001 0-0.003 0-0.004 0h0c-0.164 0.005-0.295 0.136-0.3 0.3v0l-0.186 6.805 0.186 3.13c0.014 0.167 0.152 0.297 0.32 0.3h0c0.001 0 0.002 0 0.004 0 0.164 0 0.296-0.133 0.296-0.296 0-0.001 0-0.003-0-0.004v0l0.205-3.13-0.205-6.824zM9.641 12.194c-0.149 0-0.27 0.115-0.281 0.26l-0 0.001-0.206 6.597 0.206 3.152c0.010 0.151 0.13 0.271 0.28 0.281l0.001 0c0.154-0.004 0.277-0.128 0.281-0.281v-0l0.244-3.152-0.245-6.597c-0.004-0.154-0.128-0.278-0.281-0.281h-0zM8.432 12.756c-0.134 0.005-0.243 0.11-0.254 0.242l-0 0.001-0.225 6.093 0.206 3.187c-0 0.003-0 0.006-0 0.010 0 0.136 0.108 0.247 0.244 0.252h0c0.14-0.010 0.252-0.121 0.263-0.26l0-0.001 0.241-3.187-0.24-6.073c-0.010-0.141-0.122-0.253-0.262-0.263l-0.001-0zM7.261 13.936c-0.123 0.004-0.222 0.103-0.225 0.226v0l-0.263 4.949 0.234 3.205c0.006 0.115 0.1 0.205 0.216 0.205 0.003 0 0.007-0 0.010-0l-0 0c0.12-0.009 0.216-0.105 0.225-0.224l0-0.001 0.261-3.205-0.261-4.968c-0.005-0.122-0.103-0.22-0.225-0.225h-0zM6.249 16.074c-0.004-0.104-0.089-0.186-0.193-0.186-0.002 0-0.004 0-0.006 0h0c-0.003-0-0.006-0-0.009-0-0.105 0-0.191 0.082-0.196 0.186l-0 0-0.271 3.039 0.25 3.205c0.001 0.109 0.089 0.196 0.198 0.196 0 0 0.001 0 0.001 0h-0c0.103-0.006 0.185-0.091 0.185-0.196 0-0.001 0-0.001 0-0.002v0l0.284-3.205-0.284-3.057zM4.805 15.624c-0.095 0.005-0.173 0.076-0.187 0.168l-0 0.001-0.241 3.302 0.263 3.182c0.007 0.097 0.088 0.173 0.187 0.173 0.103 0 0.187-0.084 0.187-0.187 0-0 0-0.001 0-0.001v0l0.3-3.167-0.3-3.28c0-0 0-0 0-0.001 0-0.093-0.075-0.168-0.168-0.168-0 0-0 0-0.001 0h0zM3.605 15.756c-0.002-0-0.004-0-0.007-0-0.075 0-0.136 0.057-0.143 0.13l-0 0.001-0.263 3.205 0.281 3.074c0 0.001-0 0.002-0 0.002 0 0.082 0.066 0.148 0.148 0.148 0 0 0.001 0 0.001 0h-0c0.076 0 0.131-0.076 0.151-0.15l0.318-3.094-0.318-3.187c-0.020-0.075-0.076-0.15-0.151-0.15zM1.318 17.317c-0.001 0-0.001-0-0.002-0-0.067 0-0.122 0.052-0.128 0.117l-0 0-0.208 1.666 0.206 1.636c0 0 0 0.001 0 0.001 0 0.063 0.050 0.114 0.112 0.116h0c0.067-0.011 0.119-0.063 0.13-0.129l0-0.001 0.263-1.65-0.263-1.668c0-0.002 0-0.004 0-0.006 0-0.059-0.048-0.107-0.107-0.107-0.002 0-0.004 0-0.006 0h0zM2.45 16.281c-0.067 0.005-0.12 0.058-0.126 0.125l-0 0.001-0.291 2.694 0.291 2.633c0.001 0.068 0.057 0.123 0.125 0.123s0.124-0.055 0.125-0.123v-0l0.319-2.633-0.338-2.694c0-0.001 0-0.002 0-0.004 0-0.064-0.049-0.117-0.112-0.121l-0-0z"></path>
</svg>