<?xml version="1.0" encoding="utf-8"?><!-- Uploaded to: SVG Repo, www.svgrepo.com, Generator: SVG Repo Mixer Tools -->
<svg fill="#000000" width="800px" height="800px" viewBox="0 0 24 24" id="frequency-2" data-name="Flat Color" xmlns="http://www.w3.org/2000/svg" class="icon flat-color"><path id="primary" d="M15,17a1,1,0,0,1-.89-.55l-3-6.07-2.15,5a1,1,0,0,1-.83.61,1,1,0,0,1-.92-.45L5.46,13H3a1,1,0,0,1,0-2H6a1,1,0,0,1,.83.45l1,1.46,2.27-5.3A1,1,0,0,1,11,7a1.05,1.05,0,0,1,.92.55L15,13.76l1.11-2.21A1,1,0,0,1,17,11h4a1,1,0,0,1,0,2H17.62l-1.73,3.45A1,1,0,0,1,15,17Z" style="fill: rgb(0, 0, 0);"></path></svg>